<?xml version="1.0" encoding="utf-8"?>
<!-- Generator: Adobe Illustrator 16.0.3, SVG Export Plug-In . SVG Version: 6.00 Build 0)  -->
<!DOCTYPE svg PUBLIC "-//W3C//DTD SVG 1.1//EN" "http://www.w3.org/Graphics/SVG/1.1/DTD/svg11.dtd">
<svg version="1.1" id="Calque_3" xmlns="http://www.w3.org/2000/svg" xmlns:xlink="http://www.w3.org/1999/xlink" x="0px" y="0px"
	 width="450px" height="240px" viewBox="0 0 450 240" enable-background="new 0 0 450 240" xml:space="preserve">
<g>
	<g>
		<g>
			<path d="M226.283,51.807c-37.614,0-68.118,30.504-68.118,68.125c0,37.637,30.504,68.142,68.118,68.142
				c37.643,0,68.148-30.505,68.148-68.142C294.432,82.312,263.926,51.807,226.283,51.807z M226.283,183.51
				c-35.086,0-63.544-28.467-63.544-63.578c0-35.097,28.458-63.558,63.544-63.558c35.127,0,63.588,28.461,63.588,63.558
				C289.871,155.043,261.41,183.51,226.283,183.51z M226.283,0.805c-65.784,0-119.125,53.345-119.125,119.127
				c0,65.812,53.342,119.151,119.125,119.151c65.807,0,119.15-53.34,119.15-119.151C345.434,54.149,292.09,0.805,226.283,0.805z
				 M226.283,232.79c-62.313,0-112.841-50.522-112.841-112.858c0-62.316,50.528-112.84,112.841-112.84
				c62.334,0,112.859,50.524,112.859,112.84C339.143,182.268,288.617,232.79,226.283,232.79z"/>
		</g>
	</g>
	<path d="M133.237,121.101c0.033,1.415,1.208,2.544,2.627,2.515c1.421-0.031,2.55-1.201,2.519-2.624
		c-0.027-1.419-1.203-2.546-2.626-2.516C134.337,118.502,133.213,119.678,133.237,121.101z M143.874,170.587l11.858-8.121
		l6.122,8.937l-2.315,1.595l-4.354-6.35l-2.408,1.647l3.834,5.59l-2.317,1.591l-3.834-5.585l-2.489,1.703l4.413,6.43l-2.321,1.598
		L143.874,170.587z M163.561,193.644l0.964-5.801l-5.722,1.433l-2.642-2.433l8.63-1.991l1.237-8.441l2.717,2.494l-0.925,5.481
		l5.387-1.38l2.637,2.43l-8.282,1.919l-1.283,8.793L163.561,193.644z M174.506,201.768l7.559-12.194l2.684,1.662l-7.563,12.198
		L174.506,201.768z M193.134,211.343c-3.95-1.516-5.726-5.671-4.255-9.53l0.012-0.042c1.457-3.817,5.52-5.843,9.646-4.268
		c2.532,0.958,3.723,2.386,4.502,4.086l-2.701,1.453c-0.676-1.336-1.519-2.317-2.858-2.83c-2.264-0.867-4.612,0.395-5.484,2.705
		l-0.015,0.035c-0.879,2.299-0.018,4.826,2.284,5.708c1.532,0.581,2.711,0.327,4.129-0.232l1.155,2.618
		C197.604,211.99,195.724,212.326,193.134,211.343z M219.441,216.944l-0.917-3.349l-6.032-0.74l-1.693,3.042l-3.199-0.387
		l7.857-13.628l2.896,0.343l4.366,15.114L219.441,216.944z M216.407,205.816l-2.459,4.404l3.794,0.458L216.407,205.816z
		 M242.801,215.933l-8.037-8.197l1.131,9.063l-3.104,0.381l-1.777-14.246l2.898-0.359l7.775,7.933l-1.092-8.764l3.098-0.391
		l1.771,14.248L242.801,215.933z M268.072,208.327c-4.066,1.866-8.18,0.289-9.957-3.576l-0.014-0.033
		c-1.709-3.711-0.203-8.083,3.752-9.893c2.348-1.078,4.055-1.094,5.951-0.56L267,197.273c-1.395-0.378-2.512-0.448-4.021,0.24
		c-2.094,0.959-2.906,3.574-1.889,5.786l0.018,0.037c1.1,2.39,3.549,3.395,5.854,2.333c1.049-0.481,1.859-1.175,2.35-2.029
		l-0.855-1.87l-2.895,1.334l-1.135-2.485l5.66-2.604l2.613,5.678C271.871,205.452,270.457,207.229,268.072,208.327z M289.596,194.35
		l-5.27-1.696l-1.951,1.532l2.852,3.607l-2.473,1.968l-8.914-11.27l5.145-4.075c2.664-2.102,5.365-1.961,7.197,0.359l0.023,0.029
		c1.438,1.817,1.369,3.741,0.35,5.403l5.932,1.853L289.596,194.35z M283.771,186.883c-0.838-1.056-2.016-1.018-3.221-0.067
		l-2.457,1.958l2.547,3.227l2.514-1.984c1.211-0.946,1.398-2.141,0.639-3.093L283.771,186.883z M299.391,184.805l-10.852-9.407
		l2.07-2.384l10.842,9.408L299.391,184.805z M308.104,173.701l-12.334-7.356l1.619-2.709l9.867,5.879l3.666-6.139l2.471,1.463
		L308.104,173.701z M317.488,155.718l-13.586-4.641l1.018-2.99l10.873,3.717l2.32-6.777l2.709,0.922L317.488,155.718z
		 M137.334,157.724l8.791-3.278l-7.166-1.649l-0.032-0.076l4.297-5.874l-8.732,3.254l-1.084-2.9l13.462-5.023l1.192,3.197
		l-4.375,5.657l7.018,1.419l1.189,3.194l-13.462,5.023L137.334,157.724z M159.851,64.537c-0.283,0.29-0.283,0.756,0.014,1.042
		l5.582,5.45c0.287,0.287,0.292,0.75,0.011,1.038l-2.148,2.202c-0.286,0.292-0.755,0.302-1.041,0.013l-17.453-17.049
		c-0.294-0.291-0.294-0.755-0.014-1.047l2.147-2.191c0.283-0.293,0.751-0.301,1.042-0.015l7.803,7.625
		c0.288,0.279,0.76,0.277,1.044-0.012l8.358-8.558c0.284-0.292,0.279-0.763-0.01-1.043l-7.806-7.626
		c-0.291-0.282-0.292-0.752-0.011-1.042l2.144-2.196c0.289-0.287,0.757-0.294,1.046-0.013l17.449,17.055
		c0.292,0.281,0.296,0.747,0.016,1.042l-2.144,2.196c-0.286,0.287-0.757,0.294-1.05,0.011l-5.578-5.451
		c-0.289-0.284-0.756-0.277-1.043,0.015L159.851,64.537z M179.271,27.966c0.363-0.186,0.811-0.048,0.997,0.315l11.292,21.625
		c0.185,0.356,0.049,0.804-0.315,0.998l-2.718,1.417c-0.359,0.189-0.807,0.049-0.998-0.308l-11.292-21.629
		c-0.186-0.359-0.047-0.812,0.319-0.999L179.271,27.966z M240.045,44.846c-7.836-1.37-12.252-8.262-10.99-15.473
		c1.26-7.207,7.861-12.249,15.695-10.871c7.814,1.373,12.236,8.259,10.967,15.477C254.459,41.189,247.871,46.221,240.045,44.846z
		 M243.955,22.61c-5.064-0.891-9.316,2.532-10.195,7.518c-0.871,4.988,2.014,9.728,7.078,10.619
		c5.068,0.891,9.295-2.536,10.174-7.519C251.883,28.245,249,23.496,243.955,22.61z M268.344,54.518
		c-0.211,0.349-0.664,0.469-1.016,0.254l-2.666-1.586c-0.346-0.208-0.461-0.667-0.252-1.014l10.338-17.343
		c0.197-0.343,0.094-0.796-0.26-1.012l-5.775-3.444c-0.357-0.211-0.461-0.658-0.258-1.007l1.395-2.351
		c0.217-0.353,0.666-0.469,1.021-0.261l16.76,10.005c0.35,0.203,0.467,0.659,0.26,1.009l-1.402,2.351
		c-0.207,0.348-0.668,0.461-1.012,0.251l-5.781-3.448c-0.352-0.208-0.805-0.09-1.014,0.261L268.344,54.518z M299.139,47.766
		c0.303-0.266,0.777-0.228,1.033,0.079l2.006,2.326c0.264,0.307,0.227,0.78-0.082,1.043L286.742,64.42
		c-0.32,0.268-0.354,0.732-0.088,1.038l7.91,9.196c0.258,0.31,0.223,0.778-0.076,1.046l-2.02,1.73
		c-0.318,0.264-0.781,0.231-1.049-0.072l-10.873-12.653c-0.26-0.299-0.229-0.769,0.078-1.035L299.139,47.766z M322.859,93.606
		c-0.383,0.145-0.801-0.047-0.951-0.428l-4.627-12.321c-0.135-0.385-0.563-0.58-0.945-0.436l-6.438,2.415
		c-0.375,0.144-0.574,0.567-0.432,0.955l3.469,9.24c0.143,0.376-0.051,0.805-0.434,0.954l-2.43,0.904
		c-0.377,0.143-0.803-0.05-0.947-0.43l-3.465-9.24c-0.146-0.384-0.574-0.576-0.947-0.438l-3.605,1.352
		c-0.387,0.145-0.58,0.57-0.432,0.953l4.682,12.494c0.15,0.381-0.041,0.812-0.43,0.952l-2.42,0.912
		c-0.379,0.145-0.807-0.055-0.947-0.436l-6.295-16.751c-0.137-0.382,0.059-0.811,0.438-0.949l22.838-8.572
		c0.379-0.143,0.811,0.048,0.955,0.43l6.23,16.584c0.133,0.379-0.064,0.804-0.441,0.943L322.859,93.606z M218.332,25.997
		c-1.046-5.173-6.708-7.754-12.612-6.554l-9.275,1.88c-0.398,0.081-0.655,0.47-0.577,0.868l4.853,23.914
		c0.074,0.393,0.468,0.661,0.864,0.577l3.012-0.609c0.397-0.083,0.661-0.475,0.579-0.876l-1.362-6.701
		c-0.078-0.396,0.179-0.788,0.581-0.869l4.308-0.875C214.284,35.617,219.494,31.729,218.332,25.997z M203.578,33.604
		c-0.401,0.082-0.787-0.177-0.869-0.573l-1.562-7.685c-0.079-0.395,0.179-0.793,0.582-0.874l4.449-0.903
		c3.338-0.672,5.788,0.453,6.397,3.459c0.554,2.715-1.173,4.985-4.544,5.674L203.578,33.604z M135.038,81.158
		c1.056-2.446,2.913-3.968,5.173-5.047c0.362-0.173,0.521-0.623,0.34-0.991l-1.297-2.696c-0.183-0.359-0.622-0.517-0.982-0.335
		c-2.806,1.325-5.325,3.385-7.057,7.369c-3.131,7.194,0.193,14.646,6.975,17.602l-0.135-0.06c6.777,2.948,14.496,0.302,17.621-6.891
		c1.741-3.982,1.536-7.224,0.606-10.189c-0.126-0.382-0.54-0.597-0.926-0.485l-2.868,0.888c-0.382,0.122-0.601,0.539-0.481,0.927
		c0.746,2.384,0.898,4.781-0.163,7.224c-1.986,4.549-7.142,6.214-11.817,4.177C135.343,90.617,133.05,85.71,135.038,81.158z
		 M316.832,118.475c-1.422-0.03-2.596,1.097-2.627,2.516c-0.035,1.423,1.1,2.593,2.52,2.624c1.418,0.029,2.598-1.1,2.623-2.515
		C319.381,119.678,318.256,118.502,316.832,118.475z"/>
	<path d="M249.012,73.162c0.83,0.1,4.494,1.385,4.494,1.385s3.537,5.176,4.441,6.286c0.912,1.111,0.506,1.915,0.506,1.915
		l-1.734,6.342c0,0,0.631,0.517,0,0c-0.643-0.515-5.324-0.091-6.439,0.014c-1.115,0.096,1.014-1.315,1.518-1.818
		c0.504-0.504,2.527-1.917,2.268-2.727c-0.242-0.809-3.291-6.701-3.291-6.701s-5.32-0.053-7.844,0.25
		c-2.525,0.302-7.832,5.583-7.832,5.583l-1.932,7.634c0,0,0.779,1.404,1.891,2.314c1.109,0.91,4.34,0.604,5.549,0.503
		c1.209-0.096,0.709,1.316-0.301,2.222c-1.014,0.907-4.643,0.907-4.643,0.907l1.51,0.507c1.67,1.515,4.732,9.274,6.539,11.084
		c1.805,1.797-0.055,10.898-2.645,13.489c-2.598,2.581-3.834,8.16-5.414,9.737c-1.588,1.584-3.223,0.963-1.588,2.596
		c1.646,1.627,0.883,3.599,1.141,5.039c0.168,0.925,0.428,2.608,1.229,3.397c0.777,0.79,12.746,9.082,17.557,9.463
		c0.877,0.074,0.889,4.295-4.043,9.481c0,0-0.879,2.996-9.1,3.259c-8.971,0.279-17.792-1.218-19.822-1.218
		c-2.024,0-7.918-3.35-7.918-3.35c-1.121,0-19.846-26.045-19.846-27.845c0-1.804-1.327-6.675-1.327-8.48
		c0-1.8,2.084-18.296,1.751-20.292c-0.266-1.57,0.552-1.935,2.358-3.742c1.803-1.799,5.057-4.852,6.291-6.09
		c0.558-0.555,4.873-0.434,10.105-1.552l0.809-0.345l-1.039-0.504c0,0-1.683-2.117-4.403-2.014c-2.721,0.099-3.635,0.302-2.22-0.301
		c1.413-0.605,3.95-2.52,3.95-2.52l5.933,2.62h4.485l5.62-4.625l12.745-10.355L249.012,73.162 M208.257,105.943
		c-1.507,0.272-3.94-0.158-5.085,1.928l-2.176,9.451c0,0,0.234,9.488,0.443,11.37c0.204,1.875,2.653,7.994,4.022,9.369
		c1.208,1.209,3.557,5.205,5.685,7.311c0.575,0.565,1.745,0.84,2.235,1.502c0.885,1.197,0.333,0.373-1.253-1.977
		c-5.835-8.641-7.095-16.1-7.378-17.372c-0.623-2.784-0.163-9.313,0-11.931c0.084-1.386,1.047-4.494,1.96-5.189
		c0.43-0.33,4.431-0.772,5.237-1.003c1.249-0.368,3.023-0.343,4.168-0.578c3.666-0.753,10.406,1.121,10.863,1.339
		c5.488,2.537,3.359,3.422,3.439,3.72c0.09,0.311-7.639,15.869-7.602,16.602c0.035,0.791,0.315,8.573,1.044,10.7
		c0.215,0.628,2.652,6.516,3.093,7.583c1.93,4.679-4.156-0.777-4.549-0.991c-0.395-0.221-8.424-14.017-9.584-16.944
		c-0.783-1.971-0.497-4.938-0.341-5.569c0.208-0.863-0.413-7.525,0.824-8.437c0.84-0.619,4.598-0.996,6.413-0.2
		c1.649,0.722,2.536,2.572,2.366,3.009c-0.132,0.368-2.741,8.778-3.146,8.074c-0.13-0.23-0.142-2.894-0.485-3.157
		c-0.348-0.272-2.262-0.671-2.498-0.367c-0.236,0.317-0.699,3.14-0.454,4.108c1.158,4.677,3.862,3.221,4.375,2.348
		c0.76-1.299,4.43-11.632,4.365-12.297c-0.155-1.521-1.28-4.141-3.663-4.943c-1.429-0.478-7.645-0.212-9.358,0.683
		c-2.625,1.379-2.472,13.322-1.97,15.063c0.5,1.725,8.773,15.62,9.162,16.688c0.766,2.081,5.775,7.03,6.559,7.495
		c0.326,0.197,7.161,2.852,8.045,1.521c0.387-0.579,0.195-2.189-1.512-3.306c-1.627-1.069-5.523-12.422-5.509-13.318
		c0.015-0.837-1.015-7.16-0.332-8.476c1.294-2.511,10.603-16.46,9.582-17.58c-1.365-1.51-5.539-8.551-7.498-5.898
		c-1.766,2.398-10.136-0.071-12.22-1.596C215.37,104.559,210.437,105.542,208.257,105.943z M236.439,159.748
		c2.703,0,10.242-4.014,7.447-5.858c-1.768-1.158-3.842-2.71-7.666-5.637c-1.721-1.314-2.471-0.957-3-0.957
		c-1.58,0,0.986-2.55,0.139-4.608c-0.934-2.243-1.463-5.68-2.248-6.46c-0.793-0.792-0.469-4.942,1.184-6.599
		c1.811-1.807,4.404-7.063,5.832-9.073c1.701-2.404,2.865-7.682,2.195-8.362c-0.684-0.673-3.773-7.083-5.117-8.437
		c-0.877-0.871-2.307-3.014-3.744-4.758l0,0l-0.338-0.479c0,0,0,0-1.453,0.827c-1.451,0.837-3.248,2.557-3.248,2.557
		s-1.25,0.413-4.142-0.167c-1.558-0.313-2.121-1.41-2.121-2.656c0-1.245-0.813-0.929-0.813-0.929s-14.601,0.708-15.674,1.325
		c-1.063,0.622-5.729,7.014-5.729,7.014s-2.484,24.305-0.569,26.228c2.289,2.283,14.225,21.083,16.458,23.328
		C216.051,159.086,233.732,159.748,236.439,159.748z"/>
</g>
</svg>
